<svg xmlns="http://www.w3.org/2000/svg" version="1.1" width="512" height="512">
    <path d="M0 0 C26.22761311 -0.61833273 50.25771557 7.82287112 69.78125 25.45703125 C71.97855568 27.60765197 73.81863495 29.62373252 75.5390625 32.15625 C78.94337366 30.70696454 80.88210238 28.88385882 83.3515625 26.15625 C100.29944315 8.84539991 124.33451492 0.38782633 148.2265625 -0.15625 C175.95083529 0.01138982 200.54544731 10.97322833 219.97705078 30.609375 C243.53022316 55.46868561 247.39262177 88.6085473 246.67089844 121.36816406 C246.41053626 128.84923737 245.35396383 135.90650827 243.5390625 143.15625 C243.34570312 143.9596582 243.15234375 144.76306641 242.953125 145.59082031 C230.36128289 196.7937585 195.77049883 244.59766059 155.5390625 278.15625 C155.00071777 278.60838867 154.46237305 279.06052734 153.90771484 279.52636719 C102.65755335 322.42901642 102.65755335 322.42901642 73.625 321.49609375 C50.60124513 318.96056631 28.2229027 302.02970676 10.5390625 288.15625 C9.55035156 287.3828125 8.56164062 286.609375 7.54296875 285.8125 C-10.19146073 271.60436491 -27.71268883 255.27100233 -41.4609375 237.15625 C-42.45802795 235.89716285 -43.4568717 234.63946308 -44.45703125 233.3828125 C-68.11131887 203.40894655 -87.6761818 167.54556896 -92.4609375 129.15625 C-92.57179687 128.32867187 -92.68265625 127.50109375 -92.796875 126.6484375 C-94.97080568 107.43559072 -95.8181669 79.51160925 -84.859375 62.69921875 C-80.80034029 57.73718292 -77.03884656 54.52621704 -70.4765625 53.84765625 C-63.65124827 53.5881685 -57.99005567 53.8849407 -52.4609375 58.15625 C-47.42480822 62.98576884 -45.12738121 67.85716344 -44.49267578 74.69384766 C-44.43856498 78.89201345 -45.43824159 82.77859602 -46.3984375 86.84375 C-52.86351072 117.47959886 -45.31356463 147.12202078 -30.4609375 174.15625 C-29.97971436 175.0541626 -29.97971436 175.0541626 -29.48876953 175.97021484 C-20.65701136 192.42715782 -9.27009876 206.93199586 3.3046875 220.69921875 C4.77031326 222.31089463 6.21899799 223.93817582 7.6484375 225.58203125 C17.25103816 236.56894843 28.12556337 245.99549179 39.73876953 254.78857422 C41.55675922 256.16969413 43.35820249 257.5707062 45.16015625 258.97265625 C51.66882989 263.9669612 58.33030807 268.4157064 65.5390625 272.34375 C66.23298096 272.73062988 66.92689941 273.11750977 67.6418457 273.51611328 C72.09211782 275.84467532 75.41514451 276.78426744 80.5390625 276.15625 C90.9010132 272.3995764 99.84714051 265.77981872 108.5390625 259.15625 C109.12187988 258.71764648 109.70469727 258.27904297 110.30517578 257.82714844 C129.13864239 243.61497683 147.17364753 226.89495123 161.5390625 208.15625 C162.32152344 207.19074219 163.10398437 206.22523438 163.91015625 205.23046875 C174.71776674 191.79472591 183.36443252 176.80998815 190.5390625 161.15625 C191.08304687 159.9703125 191.62703125 158.784375 192.1875 157.5625 C203.15712588 131.94814516 206.74256677 102.61103094 196.5390625 76.15625 C191.41082524 64.17423653 182.47175196 54.58019976 170.5390625 49.15625 C156.22255194 43.64989978 142.84487228 43.57912923 128.5390625 49.15625 C114.66369765 55.63253879 105.97978379 65.36277853 99.7109375 79.13671875 C93.40702884 92.83375075 93.40702884 92.83375075 86.890625 96.3046875 C80.24507913 98.71121408 74.22002746 98.8518844 67.62890625 96.19921875 C59.49890995 92.14181873 56.81397675 85.99588407 53.28125 77.984375 C46.57513326 62.92738603 36.49197782 54.42254933 21.5390625 48.15625 C13.54534241 45.11820544 5.91714897 44.87637657 -2.52416992 45.26586914 C-9.20494497 45.48980181 -15.13545046 44.38263539 -20.765625 40.61328125 C-25.7327971 35.41134231 -28.4799982 30.43164934 -28.8359375 23.15625 C-28.51242858 15.98279123 -25.64107008 10.11115943 -20.4609375 5.15625 C-13.88539077 1.22098016 -7.51668195 0.33935359 0 0 Z " fill="#C89B3B" transform="translate(135.4609375,41.84375)"/>
    <path d="M0 0 C17.95028039 12.56895943 24.73859496 37.46140162 28.43798828 57.80273438 C29.26207904 62.65077234 29.76691867 67.3901961 29.86328125 72.3046875 C29.90195312 73.43132812 29.940625 74.55796875 29.98046875 75.71875 C30.57512382 107.10332308 21.66202874 136.83826805 6.86328125 164.3046875 C6.5168457 164.95743652 6.17041016 165.61018555 5.81347656 166.28271484 C-4.39341411 185.43114057 -17.12541336 202.97962591 -31.88671875 218.87109375 C-33.77617926 220.91472899 -35.59013793 222.99273068 -37.38671875 225.1171875 C-45.22384263 234.12708764 -53.91906842 242.71460191 -63.13671875 250.3046875 C-63.69053223 250.76697754 -64.2443457 251.22926758 -64.81494141 251.70556641 C-115.73011744 294.15882039 -115.73011744 294.15882039 -144.046875 291.60205078 C-165.17981386 288.59505084 -185.34604702 277.31863105 -201.13671875 263.3046875 C-204.82108963 258.33835744 -206.38786483 252.44730215 -206.13671875 246.3046875 C-205.01421556 239.88267405 -202.15262845 234.52285993 -197.13671875 230.3046875 C-192.67385453 227.60298186 -189.33166265 226.89551024 -184.13671875 226.9296875 C-182.37328125 226.91808594 -182.37328125 226.91808594 -180.57421875 226.90625 C-174.3661024 227.62582712 -170.12866116 230.92580583 -165.19921875 234.5546875 C-160.41811098 237.94895182 -155.53870568 240.87010781 -150.26171875 243.4296875 C-149.65593994 243.73680664 -149.05016113 244.04392578 -148.42602539 244.36035156 C-143.92949896 246.44809057 -140.90176572 246.51867814 -136.13671875 245.3046875 C-95.43127823 227.88676746 -62.45766024 191.90153019 -39.13671875 155.3046875 C-38.75032227 154.71010742 -38.36392578 154.11552734 -37.96582031 153.50292969 C-28.33186258 138.61995894 -21.59849572 122.70467175 -18.13671875 105.3046875 C-17.91242188 104.22832031 -17.688125 103.15195312 -17.45703125 102.04296875 C-13.6072153 80.18339734 -14.08212264 55.51823762 -26.13671875 36.3046875 C-27.75756613 34.26326949 -29.4489126 32.29198827 -31.13671875 30.3046875 C-33.98543504 24.47160177 -34.26797109 17.25390975 -32.484375 11.02734375 C-29.75387398 4.92180284 -25.28308234 0.8429097 -19.32421875 -2.0703125 C-12.39673654 -3.42864235 -6.23842321 -3.62553653 0 0 Z " fill="#C89B3B" transform="translate(438.13671875,156.6953125)"/>
</svg>