<svg xmlns="http://www.w3.org/2000/svg" width="512" height="512" version="1.1"><path fill="#C89B3B" d="M0 0 C0.7927533 0.00182281 1.58550659 0.00364563 2.40228271 0.00552368 C14.27324689 0.05145399 25.72524438 0.52635711 37.3125 3.3125 C38.02857422 3.47347168 38.74464844 3.63444336 39.48242188 3.80029297 C65.42721392 9.73884366 88.9092501 22.17268915 108.3125 40.3125 C109.26511719 41.18390625 110.21773438 42.0553125 111.19921875 42.953125 C139.13405507 69.57291196 153.19188513 107.59540399 154.53125 145.70703125 C155.48185348 187.95847543 142.51707725 227.41634588 113.3125 258.3125 C112.56613281 259.12332031 111.81976563 259.93414062 111.05078125 260.76953125 C90.37941518 282.46592374 62.19416819 294.93719017 33.3125 301.3125 C31.72888672 301.66441406 31.72888672 301.66441406 30.11328125 302.0234375 C-6.85438259 308.83456915 -45.84561656 302.16915247 -78.6875 284.3125 C-79.73421875 283.75820313 -80.7809375 283.20390625 -81.859375 282.6328125 C-113.82428142 264.9590944 -136.75377893 234.28446068 -147.25390625 199.60546875 C-159.13581524 157.47298909 -154.89862475 113.36352182 -134.8125 74.5 C-128.17014836 62.93407235 -119.91456587 52.88396646 -110.6875 43.3125 C-110.09582031 42.66925781 -109.50414062 42.02601562 -108.89453125 41.36328125 C-81.35171124 12.18829413 -39.01741962 -0.18644914 0 0 Z M-89.6875 67.3125 C-90.57308594 68.19808594 -91.45867187 69.08367187 -92.37109375 69.99609375 C-113.23163192 91.87267031 -122.16858567 122.11899791 -123.0625 151.8125 C-122.16122378 180.61578574 -114.05007943 211.03327712 -93.6875 232.3125 C-93.21086914 232.8271582 -92.73423828 233.34181641 -92.24316406 233.87207031 C-71.50976933 256.20134779 -42.00320003 271.02339134 -11.30419922 272.47216797 C3.34399006 272.9323705 18.09346817 273.27377516 32.3125 269.3125 C33.12444824 269.08675293 33.93639648 268.86100586 34.77294922 268.62841797 C65.39501617 259.8085803 91.60650444 242.0366705 107.4375 213.875 C108.40885506 212.02762181 109.36751899 210.17350717 110.3125 208.3125 C110.74433594 207.47332031 111.17617188 206.63414062 111.62109375 205.76953125 C126.29111458 175.56117059 126.64585175 139.76542713 116.16796875 108.23828125 C105.28557675 78.01608395 83.01965701 55.61875766 54.29296875 42.0625 C6.27770902 20.38348705 -52.46911594 30.09411594 -89.6875 67.3125 Z" transform="translate(255.6875,-0.3125)"/><path fill="#C89B3B" d="M0 0 C4.34731225 2.2146685 7.48432837 4.80721395 10 9 C11.37116414 13.98690519 11.53573307 18.14281002 9.32250977 22.94726562 C6.55667613 27.24025607 2.67738543 30.62398507 -1.00061035 34.12960815 C-3.53356519 36.55022666 -6.02651344 39.01098278 -8.515625 41.4765625 C-9.00182312 41.9581633 -9.48802124 42.4397641 -9.98895264 42.93595886 C-15.61473721 48.5511877 -20.42614475 54.5171251 -25 61 C-25.40009277 61.55042969 -25.80018555 62.10085938 -26.21240234 62.66796875 C-50.20597756 95.78345985 -62.53620456 135.11255745 -65.078125 175.59375 C-65.16849398 176.99578686 -65.25914943 178.39780528 -65.35009766 179.79980469 C-65.56954011 183.19969983 -65.78609932 186.59975247 -66 190 C-65.06506612 189.99772168 -65.06506612 189.99772168 -64.11124468 189.99539733 C-27.16837673 189.90588102 9.77447517 189.83725175 46.71742937 189.79573868 C51.15341664 189.79073587 55.58940369 189.78555858 60.02539062 189.78027344 C60.90851411 189.7792242 61.7916376 189.77817495 62.70152241 189.77709392 C77.00010858 189.75968966 91.2986304 189.72815185 105.5971784 189.69138882 C120.26929402 189.65397997 134.94137595 189.63176427 149.61353731 189.62364602 C158.66674374 189.61815813 167.71976831 189.6008264 176.77291876 189.56833413 C182.98138177 189.54718695 189.18975078 189.54080041 195.39824718 189.54599449 C198.9800343 189.54855597 202.56150366 189.54463518 206.14323425 189.5231781 C210.02915976 189.50006905 213.91467248 189.50805606 217.80065918 189.51898193 C218.92907714 189.50733057 220.05749511 189.4956792 221.22010756 189.48367476 C227.62656675 189.53240602 232.70617348 190.1746837 238 194 C241.75303821 198.23419695 243.27159206 202.39433993 243 208 C241.39983279 213.24499252 239.11647993 216.41127391 235 220 C232.40561744 221.29719128 230.53805562 221.12415639 227.63140678 221.12304783 C226.48487094 221.12503888 225.33833509 221.12702993 224.15705574 221.12908131 C222.88665038 221.12616847 221.61624502 221.12325563 220.30734253 221.12025452 C218.95268169 221.12069024 217.59802094 221.12156516 216.24336064 221.12284368 C212.50815244 221.12508847 208.7729727 221.12106757 205.03776813 221.11606562 C201.01458913 221.11176109 196.99141185 221.11320755 192.9682312 221.1139679 C185.99357597 221.11449313 179.01893007 221.1113464 172.04427719 221.10573006 C161.96000717 221.09761497 151.87574168 221.09499983 141.79146875 221.09374207 C125.43177739 221.09155156 109.072091 221.08489151 92.71240234 221.07543945 C76.81722031 221.0662653 60.92203962 221.05918448 45.02685547 221.05493164 C44.04764637 221.05466892 43.06843726 221.05440619 42.05955516 221.05413551 C37.14732106 221.0528305 32.23508696 221.05156679 27.32285285 221.05032361 C-13.4514349 221.03995104 -54.22571716 221.02233276 -95 221 C-95.32962406 218.60493109 -95.65650708 216.20954064 -95.98184204 213.81388855 C-96.07479836 213.14053955 -96.16775469 212.46719054 -96.26352787 211.77343702 C-96.95225262 206.67867127 -97.31894603 201.68641866 -97.3359375 196.55078125 C-97.34431641 195.73771011 -97.35269531 194.92463898 -97.36132812 194.08692932 C-97.38059151 191.49524708 -97.3809467 188.90424096 -97.375 186.3125 C-97.37445618 185.41670227 -97.37391235 184.52090454 -97.37335205 183.59796143 C-97.1964132 119.87024962 -71.87655276 60.78907958 -28 15 C-26.88431641 13.82244141 -26.88431641 13.82244141 -25.74609375 12.62109375 C-18.17233546 4.81019234 -11.43797806 -1.41016168 0 0 Z" transform="translate(118,291)"/><path fill="#C89B3B" d="M0 0 C2.2649926 1.79666182 4.35167986 3.7500046 6.4375 5.75 C7.00952148 6.29003662 7.58154297 6.83007324 8.17089844 7.38647461 C9.7872605 8.91751078 11.3940752 10.45803503 13 12 C14.03060547 12.96873047 14.03060547 12.96873047 15.08203125 13.95703125 C20.20815506 18.89107548 24.57957882 24.43812137 29 30 C29.78375 30.95519531 30.5675 31.91039062 31.375 32.89453125 C42.59438342 46.90078074 51.52169925 62.7147861 59 79 C59.3295166 79.71414063 59.6590332 80.42828125 59.99853516 81.1640625 C74.20020669 112.35204706 81.44044325 146.26628435 81.20581055 180.4921875 C81.18743022 183.26050996 81.18530266 186.02849745 81.18554688 188.796875 C81.13899187 212.58302439 81.13899187 212.58302439 79 219 C68.80338194 219.09276059 58.60686459 219.16379579 48.4099102 219.20724869 C43.67481435 219.22810605 38.9400076 219.25638979 34.20507812 219.30175781 C29.63390392 219.34528173 25.06300745 219.36915104 20.491642 219.37950897 C18.74933628 219.38688861 17.00704543 219.40129947 15.26485825 219.42292023 C12.8206089 219.4520419 10.37750093 219.45595245 7.93310547 219.45410156 C7.21596878 219.46848267 6.49883209 219.48286377 5.75996399 219.49768066 C0.71511306 219.45646031 -2.10404409 218.14396452 -6 215 C-9.11836003 211.12893237 -10.14517457 206.92686184 -10 202 C-9.12055618 197.67345048 -7.75748796 194.75748796 -4.625 191.625 C-0.46598385 189.05037095 2.974177 187.74649152 7.88208008 187.77294922 C9.29297661 187.77317581 9.29297661 187.77317581 10.7323761 187.77340698 C11.7346373 187.78372955 12.7368985 187.79405212 13.76953125 187.8046875 C15.32374031 187.80893234 15.32374031 187.80893234 16.90934753 187.81326294 C20.21051707 187.82443546 23.51141281 187.84953495 26.8125 187.875 C29.05403253 187.88503357 31.29556933 187.89415876 33.53710938 187.90234375 C39.0248326 187.92436522 44.51239674 187.95781379 50 188 C47.4741971 135.83600955 34.99193277 86.36591197 0 46 C-0.81082031 45.05511719 -1.62164062 44.11023438 -2.45703125 43.13671875 C-6.527277 38.07378294 -6.527277 38.07378294 -12 35 C-14.47340438 36.4618375 -16.77640387 37.98103761 -19.125 39.625 C-36.46094835 51.25253873 -55.21667864 60.38125885 -75 67 C-75.83337891 67.27924316 -76.66675781 67.55848633 -77.52539062 67.84619141 C-99.18723959 74.97312429 -121.25191783 78.62026633 -144 79.8125 C-145.06307373 79.87783936 -146.12614746 79.94317871 -147.22143555 80.01049805 C-153.85912618 80.29831829 -160.33683221 80.34328067 -165.55444336 75.58129883 C-169.27712059 71.32502691 -170.37048056 67.75460246 -170.27734375 62.125 C-169.60267076 56.95567459 -166.99572854 53.78828509 -163 50.625 C-159.1602652 48.54514365 -156.0844703 47.89394673 -151.75390625 47.7890625 C-103.44954042 46.26306654 -59.11694664 30.87201642 -21 1 C-14.20735238 -4.25105384 -7.51654091 -4.36384663 0 0 Z" transform="translate(410,293)"/></svg>