<svg version="1.0" xmlns="http://www.w3.org/2000/svg"
     width="300.000000pt" height="135.000000pt" viewBox="0 0 300.000000 135.000000"
     preserveAspectRatio="xMidYMid meet">
    <defs>
        <linearGradient id="goldGradient" x1="0%" y1="0%" x2="100%" y2="0%">
            <stop offset="0%" style="stop-color:#c89b3c; stop-opacity:1" />
            <stop offset="50%" style="stop-color:#e6c37a; stop-opacity:1" />
            <stop offset="100%" style="stop-color:#c89b3c; stop-opacity:1" />
        </linearGradient>
    </defs>
    <g transform="translate(0.000000,135.000000) scale(0.100000,-0.100000)"
       fill="url(#goldGradient)" stroke="none">
        <path d="M1323 933 c-12 -2 -35 -19 -51 -37 -23 -26 -132 -192 -187 -285 -5
-9 -20 -31 -32 -48 -30 -41 -29 -43 11 -43 32 0 38 5 78 69 185 297 178 289
227 285 51 -3 73 -68 46 -135 -9 -24 -50 -39 -104 -39 -37 0 -50 -4 -55 -17
-3 -10 -9 -24 -12 -32 -5 -11 7 -13 69 -9 120 7 168 51 171 158 1 54 -25 98
-74 122 -35 17 -47 19 -87 11z"/>
        <path d="M1835 932 c-1 -2 2 -16 8 -33 11 -29 12 -29 82 -27 l70 1 -64 6 c-50
5 -61 9 -50 17 8 6 21 12 29 13 139 13 147 13 153 -3 5 -11 -3 -25 -21 -41
-30 -27 -38 -30 -47 -15 -3 6 -30 -18 -58 -52 -29 -35 -62 -74 -74 -88 -21
-23 -27 -40 -20 -56 1 -4 58 -6 127 -6 l125 1 3 25 3 26 -80 0 c-46 0 -90 -5
-101 -12 -26 -17 -35 -4 -16 24 9 12 16 17 16 10 0 -24 18 -11 69 51 28 34 60
71 69 82 10 11 25 32 35 47 l17 27 -136 3 c-75 2 -137 2 -139 0z"/>
        <path d="M2233 933 c-45 -9 -90 -72 -98 -137 -6 -44 31 -122 63 -135 28 -10
252 -20 252 -11 0 5 -35 94 -73 185 -22 52 -52 93 -62 83 -3 -3 5 -18 18 -34
25 -31 67 -143 67 -180 0 -29 -17 -34 -104 -34 -81 0 -106 15 -132 76 -20 48
-17 79 10 122 24 39 81 66 114 55 15 -4 15 -3 2 6 -15 11 -20 11 -57 4z"/>
        <path d="M580 785 l0 -145 30 0 c30 0 30 0 30 60 0 44 -3 58 -13 54 -7 -2 -14
3 -15 13 -1 10 -4 44 -8 76 -4 37 -3 57 4 57 6 0 12 -10 14 -22 5 -38 23 -29
23 12 0 38 -1 40 -32 40 l-33 0 0 -145z"/>
        <path d="M790 880 l0 -50 -60 0 c-45 0 -60 -4 -60 -14 0 -8 -3 -21 -6 -30 -5
-14 3 -16 54 -16 36 0 64 5 68 12 4 6 2 14 -4 16 -18 6 -14 19 8 25 11 3 20
12 20 21 0 9 5 16 10 16 6 0 10 -25 10 -55 0 -30 -4 -55 -10 -55 -5 0 -10 5
-10 11 0 5 -4 7 -10 4 -5 -3 -10 -33 -10 -66 0 -59 0 -59 30 -59 l30 0 0 145
0 145 -30 0 c-29 0 -30 -1 -30 -50z"/>
        <path d="M900 926 c0 -2 20 -55 45 -116 l45 -113 -32 -51 c-18 -28 -42 -65
-55 -82 -30 -40 -29 -44 11 -44 32 0 37 5 107 118 40 64 96 154 126 199 29 46
53 85 53 88 0 3 -15 5 -33 5 -31 0 -37 -6 -80 -74 -45 -70 -59 -104 -37 -91 6
3 10 1 10 -5 0 -14 -30 -60 -40 -60 -13 0 -21 51 -10 65 10 12 4 34 -35 130
-4 11 -7 23 -7 28 1 4 -14 7 -33 7 -19 0 -35 -2 -35 -4z"/>
        <path d="M1560 900 c21 -29 24 -30 98 -29 108 2 135 9 137 37 2 22 0 22 -127
22 l-129 0 21 -30z"/>
        <path d="M2225 855 c-30 -29 -34 -97 -9 -133 13 -19 24 -22 84 -22 l69 0 -30
72 c-46 112 -69 129 -114 83z"/>
        <path d="M1527 823 c-2 -5 -1 -34 2 -66 5 -43 14 -64 32 -83 23 -23 34 -25
122 -27 88 -2 96 0 101 18 3 11 6 23 6 27 0 4 -41 9 -92 10 -91 3 -92 3 -108
33 -8 17 -18 32 -22 33 -5 2 -8 10 -8 18 0 19 26 18 34 -1 4 -12 24 -15 90
-15 85 0 86 0 101 30 l16 30 -135 0 c-74 0 -137 -3 -139 -7z"/>
    </g>
</svg>
